<svg xmlns="http://www.w3.org/2000/svg" width="256" height="256" viewBox="0 0 100 100"><rect width="100" height="100" rx="20" fill="#020105"></rect><path fill="#f8f31c" d="M51.26 74.48L47.21 62.51L23.09 62.51Q22.46 64.31 21.74 66.43Q21.02 68.54 20.34 70.56Q19.67 72.59 19.04 74.34Q18.41 76.10 18.05 77.27L18.05 77.27Q16.79 77.81 15.08 77.81L15.08 77.81Q13.64 77.81 12.52 77.05Q11.39 76.28 11.39 74.57L11.39 74.57Q11.39 73.76 11.66 72.91Q11.93 72.05 12.29 71.06L12.29 71.06Q13.64 67.28 15.76 61.34Q17.87 55.40 20.34 48.70Q22.82 41.99 25.39 35.20Q27.95 28.40 30.11 23.00L30.11 23.00Q30.83 22.64 32.27 22.28Q33.71 21.92 35.24 21.92L35.24 21.92Q37.04 21.92 38.70 22.46Q40.37 23.00 40.82 24.26L40.82 24.26Q42.98 29.48 45.45 36.19Q47.93 42.89 50.45 49.91Q52.97 56.93 55.27 63.73Q57.56 70.52 59.36 76.01L59.36 76.01Q58.64 76.82 57.65 77.31Q56.66 77.81 55.40 77.81L55.40 77.81Q53.69 77.81 52.79 77.05Q51.89 76.28 51.26 74.48L51.26 74.48ZM35.51 28.04L35.15 28.04Q34.16 30.74 32.90 34.21Q31.64 37.67 30.29 41.45Q28.94 45.23 27.59 49.10Q26.24 52.97 25.07 56.48L25.07 56.48L45.32 56.48Q43.97 52.43 42.53 48.34Q41.09 44.24 39.78 40.46Q38.48 36.68 37.36 33.49Q36.23 30.29 35.51 28.04L35.51 28.04ZM81.32 22.55L81.32 22.55Q81.77 22.37 82.72 22.15Q83.66 21.92 84.65 21.92L84.65 21.92Q88.61 21.92 88.61 25.25L88.61 25.25L88.61 63.77Q88.61 67.82 87.44 70.56Q86.27 73.31 84.25 74.98Q82.22 76.64 79.56 77.36Q76.91 78.08 74.03 78.08L74.03 78.08Q68.90 78.08 66.56 76.87Q64.22 75.65 64.22 73.67L64.22 73.67Q64.22 72.41 64.76 71.51Q65.30 70.61 65.75 70.16L65.75 70.16Q67.10 70.79 68.99 71.33Q70.88 71.87 72.95 71.87L72.95 71.87Q77 71.87 79.16 69.94Q81.32 68 81.32 63.41L81.32 63.41L81.32 22.55Z"></path></svg>